<?xml version="1.0" standalone="no"?>
<!DOCTYPE svg PUBLIC "-//W3C//DTD SVG 20010904//EN"
 "http://www.w3.org/TR/2001/REC-SVG-20010904/DTD/svg10.dtd">
<svg version="1.0" xmlns="http://www.w3.org/2000/svg"
 width="260.000000pt" height="260.000000pt" viewBox="0 0 260.000000 260.000000"
 preserveAspectRatio="xMidYMid meet">
<metadata>
Created by potrace 1.11, written by Peter Selinger 2001-2013
</metadata>
<g transform="translate(0.000000,260.000000) scale(0.100000,-0.100000)"
fill="#000000" stroke="none">
<path d="M1370 2483 c-42 -47 -140 -191 -152 -224 -2 -4 -28 -10 -58 -14 -220
-28 -488 -168 -647 -338 -398 -427 -393 -1122 11 -1522 141 -140 379 -272 540
-301 16 -3 32 -6 35 -8 15 -9 145 -19 231 -18 344 5 684 192 874 481 110 168
162 329 164 517 l2 89 -23 -75 c-61 -198 -154 -352 -304 -497 -199 -193 -446
-289 -738 -287 -309 3 -592 146 -740 374 -96 147 -125 246 -131 440 -5 149 -4
157 51 373 9 38 78 168 116 219 90 121 206 220 341 292 71 37 196 83 256 92
20 4 44 8 52 9 8 2 25 4 36 4 17 1 22 9 27 46 8 56 50 144 93 193 l32 37 26
-25 c15 -13 41 -54 60 -90 32 -65 33 -66 77 -68 131 -8 236 -35 339 -87 40
-20 54 -23 75 -15 33 13 109 65 135 92 11 12 22 19 25 16 10 -10 11 -83 2
-128 -9 -44 -9 -66 -3 -145 5 -59 -19 -157 -53 -222 -85 -160 -287 -286 -524
-327 -41 -7 -96 -12 -121 -11 -75 4 -61 -8 49 -42 44 -13 113 -21 180 -21 249
3 471 171 567 430 28 75 31 95 32 208 0 69 -2 145 -6 170 -13 76 -31 206 -31
228 -1 26 -75 4 -199 -58 l-76 -39 -54 29 c-91 49 -219 83 -314 83 -20 0 -29
9 -47 46 -22 49 -118 151 -142 151 -7 0 -37 -26 -65 -57z"/>
<path d="M1345 1870 c-8 -13 51 -76 89 -94 48 -22 111 -20 165 6 l46 23 -77 7
c-50 4 -102 17 -148 37 -38 16 -72 25 -75 21z"/>
<path d="M1797 1749 c49 -86 172 -109 268 -52 18 11 17 12 -15 13 -19 1 -44 3
-55 5 -11 2 -35 7 -54 10 -18 4 -58 17 -89 31 -71 31 -77 30 -55 -7z"/>
</g>
</svg>
